HIERARCHY
ROOT Hips
{
  OFFSET 22.7757 90.1423 117.012
  CHANNELS 6 Xposition Yposition Zposition Zrotation Xrotation Yrotation
  JOINT ToSpine
  {
    OFFSET -2.69724 7.43032 -0.144315
    CHANNELS 3 Zrotation Xrotation Yrotation
    JOINT Spine
    {
      OFFSET -0.0310711 10.7595 1.96963
      CHANNELS 3 Zrotation Xrotation Yrotation
      JOINT Spine1
      {
        OFFSET 13.1342 3.43533 0.764692
        CHANNELS 3 Zrotation Xrotation Yrotation
        JOINT Neck
        {
          OFFSET 29.8703 7.82586 -0.130764
          CHANNELS 3 Zrotation Xrotation Yrotation
          JOINT Head
          {
            OFFSET 9.52751 0.295786 -0.907742
            CHANNELS 3 Zrotation Xrotation Yrotation
            End Site
            {
              OFFSET 16.4037 0.713936 2.7358
            }
          }
        }
        JOINT LeftShoulder
        {
          OFFSET 27.5574 4.95586 2.47156
          CHANNELS 3 Zrotation Xrotation Yrotation
          JOINT LeftArm
          {
            OFFSET 1.20734 -0.998971 20.1238
            CHANNELS 3 Zrotation Xrotation Yrotation
            JOINT LeftForeArm
            {
              OFFSET 26.8049 -0.0536703 -0.155908
              CHANNELS 3 Zrotation Xrotation Yrotation
              JOINT LeftHand
              {
                OFFSET 26.6817 0 0.320147
                CHANNELS 3 Zrotation Xrotation Yrotation
                End Site
                {
                  OFFSET 18.6119 0 0.382219
                }
              }
            }
          }
        }
        JOINT RightShoulder
        {
          OFFSET 27.5927 4.71444 -2.65209
          CHANNELS 3 Zrotation Xrotation Yrotation
          JOINT RightArm
          {
            OFFSET 2.83739 -1.17114 -18.7564
            CHANNELS 3 Zrotation Xrotation Yrotation
            JOINT RightForeArm
            {
              OFFSET 28.839 -0.0548439 1.22491
              CHANNELS 3 Zrotation Xrotation Yrotation
              JOINT RightHand
              {
                OFFSET 26.5114 0 -0.101894
                CHANNELS 3 Zrotation Xrotation Yrotation
                End Site
                {
                  OFFSET 18.2168 0 0
                }
              }
            }
          }
        }
      }
    }
  }
  JOINT LeftUpLeg
  {
    OFFSET -4.76168 -1.9167 -10.2353
    CHANNELS 3 Zrotation Xrotation Yrotation
    JOINT LeftLeg
    {
      OFFSET 2.55951 -42.0585 -8.02213
      CHANNELS 3 Zrotation Xrotation Yrotation
      JOINT LeftFoot
      {
        OFFSET 3.16357 -42.5282 -3.95426
        CHANNELS 3 Zrotation Xrotation Yrotation
        JOINT LeftToeBase
        {
          OFFSET 0.346054 -6.02161 12.8035
          CHANNELS 3 Zrotation Xrotation Yrotation
          End Site
          {
            OFFSET 0.134235 -1.35082 5.13018
          }
        }
      }
    }
  }
  JOINT RightUpLeg
  {
    OFFSET -4.94151 -1.41743 10.6446
    CHANNELS 3 Zrotation Xrotation Yrotation
    JOINT RightLeg
    {
      OFFSET -2.56294 -42.0364 -7.94377
      CHANNELS 3 Zrotation Xrotation Yrotation
      JOINT RightFoot
      {
        OFFSET -3.0952 -42.555 -4.02241
        CHANNELS 3 Zrotation Xrotation Yrotation
        JOINT RightToeBase
        {
          OFFSET -0.0828122 -6.13587 12.8035
          CHANNELS 3 Zrotation Xrotation Yrotation
          End Site
          {
            OFFSET -0.131328 -1.35082 5.13018
          }
        }
      }
    }
  }
}
MOTION
Frames:	18
Frame Time:	0.0333333
-20.1444 94.3114 54.6486 -23.4682 -65.5998 -114.883 -70.1915 0 88.8779 78.6395 72.1936 12.409 5.54951 22.4133 -0.58242 -137.213 9.88005 -168.78 -148.848 45.3469 -174.78 -0.346414 -16.6356 -32.0829 -130.472 23.9274 -78.963 31.2243 -0.338948 -89.8713 0.420957 0.000575982 0.35866 -1.69831 8.6276 33.749 -47.7471 -24.3086 146.218 18.1205 1.80302 95.2495 0.58676 0.000331022 0.0646654 -34.3538 11.2546 97.1114 -1.78045 32.7551 -3.6311 -2.56672 -1.63738 0.0767834 0.858251 2.30779 -9.0896 -50.1381 -4.43298 89.9988 1.68014 36.2277 6.07905 -24.1605 -3.86239 2.78364 -0.494538 -33.493 -32.6933 
-19.81 94.4767 54.7013 -24.422 -65.4619 -116.212 -70.1915 0 88.8779 78.6245 72.3362 12.3516 5.53225 22.6266 -0.834735 -137.146 9.8011 -168.921 -148.423 45.2674 -174.735 -0.352349 -16.6832 -32.0106 -130.636 24.2088 -78.8251 31.0809 -0.398412 -89.9907 0.420957 0.000575982 0.35866 -1.73078 8.7026 33.9459 -48.0602 -24.4666 146.268 19.1758 1.87993 95.1502 0.58676 0.000331022 0.0646654 -34.9435 10.8298 97.3421 -1.71782 32.1141 -3.12355 -2.2443 -1.39921 0.0627153 0.894095 2.47011 -9.55952 -49.5668 -4.60741 90.8672 2.11194 37.597 5.89149 -23.9271 -5.13797 2.58898 -0.481609 -33.5614 -32.5195 
-19.5477 94.5514 54.7565 -25.0213 -65.6953 -117.066 -70.1915 0 88.8779 79.5092 72.5123 11.1888 5.15134 22.7147 -0.588078 -136.972 9.92872 -168.825 -148.439 45.4148 -174.346 -0.392567 -16.8656 -32.0181 -131.052 24.7995 -78.2887 30.5256 -0.497412 -90.1616 0.420957 0.000575982 0.35866 -1.71895 8.69024 33.8393 -48.1354 -24.9389 146.722 20.499 1.97168 95.0235 0.58676 0.000331022 0.0646654 -35.6235 10.4413 97.5311 -1.64434 31.6058 -2.56138 -2.04357 -1.27293 0.0517451 1.1328 2.49717 -10.7483 -49.2003 -4.55305 91.6967 2.4094 39.5191 5.72716 -23.2953 -5.46473 2.49588 -0.334958 -33.026 -32.0703 
-19.592 94.5298 54.7327 -24.6983 -66.173 -116.981 -70.1915 0 88.8779 79.653 72.4748 10.824 5.00002 22.6972 -0.68066 -136.962 9.885 -168.855 -148.792 45.4094 -174.246 -0.409152 -17.0167 -31.7624 -131.792 25.8324 -77.1892 30.8927 -0.772742 -90.5673 0.420957 0.000575982 0.35866 -1.67432 8.5969 33.5394 -47.9597 -25.5739 147.641 21.0385 2.05521 95.0896 0.58676 0.000331022 0.0646654 -36.1551 9.9738 97.459 -1.71881 31.3908 -3.4023 -1.89769 -0.843112 0.0743891 1.04864 1.61563 -8.80086 -49.6084 -4.32946 92.3254 2.37537 40.0219 5.31844 -20.5014 -4.4685 2.3554 0.655749 -30.7691 -27.981 
-19.8343 94.4614 54.6224 -23.1184 -66.7666 -115.683 -70.1915 0 88.8779 78.7767 72.1129 11.8057 5.23996 22.5385 -1.35892 -136.829 9.80798 -168.644 -149.073 45.3473 -173.836 -0.461619 -17.1857 -32.0238 -132.349 26.2087 -76.4895 31.38 -0.997456 -90.9663 0.420957 0.000575982 0.35866 -1.69336 8.70807 33.488 -48.0995 -25.874 147.93 21.5221 2.18259 95.2721 0.58676 0.000331022 0.0646654 -36.4252 9.51054 97.4576 -1.81301 31.1167 -4.37668 -2.17335 -0.506204 0.141649 0.901324 1.3599 -7.54333 -50.4322 -4.46604 92.3596 2.12035 39.1042 3.72705 -18.2871 -4.26407 2.17878 1.33887 -29.1711 -22.8207 
-20.2084 94.342 54.4395 -21.7234 -67.3585 -114.493 -70.1915 0 88.8779 78.8429 71.8909 12.155 5.23704 22.5387 -2.14283 -136.686 10.0351 -168.251 -149.932 45.6941 -172.672 -0.521187 -17.2663 -32.6354 -132.562 26.4016 -76.1205 31.5569 -1.14525 -91.1769 0.420957 0.000575982 0.35866 -1.71829 8.75633 33.6636 -48.3194 -25.9763 147.813 21.7891 2.37309 95.6559 0.58676 0.000331022 0.0646654 -36.7576 9.24727 97.4223 -1.81148 30.6572 -4.61308 -1.88353 -0.165237 0.135578 1.09536 1.21473 -8.25197 -51.2341 -4.53443 92.2352 1.98388 38.3726 3.10362 -17.5692 -5.14186 2.04163 1.24215 -29.0326 -24.0698 
-20.6283 94.1783 54.126 -21.2263 -67.8017 -114.339 -70.1915 0 88.8779 79.9463 71.9019 11.2309 4.67718 22.63 -2.43171 -136.684 10.2483 -167.669 -150.729 45.9665 -171.697 -0.476914 -16.9777 -32.9538 -132.85 27.2708 -74.7573 31.4707 -1.48155 -91.7074 0.420957 0.000575982 0.35866 -1.75334 8.96351 33.5545 -48.2656 -26.2769 147.956 22.2202 2.49491 95.8188 0.58676 0.000331022 0.0646654 -37.1165 9.04858 97.4534 -1.82788 30.3128 -4.91202 -0.414128 0.515196 0.00551189 1.41759 0.519202 -8.56956 -51.633 -4.66689 92.0668 2.07181 38.3564 3.72433 -18.6794 -5.05588 2.14706 0.826488 -29.7596 -27.2295 
-21.1533 93.9989 53.7053 -21.2231 -68.31 -114.399 -70.1915 0 88.8779 81.681 72.075 9.77363 4.17192 22.7452 -2.29316 -136.7 10.4654 -166.876 -151.156 46.161 -170.874 -0.511065 -16.9613 -33.5613 -133.334 27.8806 -72.7309 30.3464 -1.80944 -92.3908 0.420957 0.000575982 0.35866 -1.73959 9.15962 32.9403 -47.9847 -26.5411 148.265 22.0233 2.41688 95.6919 0.58676 0.000331022 0.0646654 -37.2145 9.39084 97.6398 -1.79208 30.4039 -4.49548 -1.32625 0.457551 0.119598 1.45954 1.2893 -10.3003 -52.042 -4.48469 91.4603 1.97994 38.2365 3.23501 -22.0436 -4.2548 2.53007 0.521508 -31.1791 -28.111 
-21.8487 93.8758 53.1504 -21.4536 -68.6035 -114.45 -70.1915 0 88.8779 82.5932 72.348 9.51911 4.23097 23.0827 -2.58646 -137.043 10.6542 -166.682 -151.757 46.4717 -170.256 -0.586797 -17.1034 -34.2028 -133.981 28.7213 -70.5241 29.2652 -2.21298 -93.2208 0.420957 0.000575982 0.35866 -1.6887 8.9664 32.8038 -47.8726 -26.5895 148.239 22.1135 2.40254 95.6315 0.58676 0.000331022 0.0646654 -36.8741 10.3608 98.0888 -1.83045 30.7987 -4.58311 -2.50621 0.977245 0.328973 1.67827 1.53054 -11.8129 -52.3222 -4.1622 90.2744 1.72751 37.7603 2.52828 -25.5213 -3.59173 2.95531 0.463338 -32.5065 -27.1683 
-22.5533 93.6415 52.4771 -21.0241 -68.8765 -113.635 -70.1915 0 88.8779 84.9828 72.3031 8.12779 3.99286 23.1919 -3.34925 -137.685 10.576 -166.956 -152.144 46.5999 -169.978 -0.492708 -16.7237 -34.1564 -134.434 30.1516 -68.2015 28.4107 -2.56542 -94.0125 0.420957 0.000575982 0.35866 -1.74006 8.95525 33.4301 -47.779 -26.5351 147.834 22.4706 2.38472 95.4898 0.58676 0.000331022 0.0646654 -35.8937 11.594 98.4428 -2.01154 31.9732 -6.03207 -2.69285 1.7752 0.43721 1.87171 0.776442 -11.4789 -52.2881 -3.91709 88.6093 1.55683 37.6574 1.91877 -28.8282 -3.52292 3.29601 0.580335 -33.7975 -25.2427 
-23.1673 93.279 51.8351 -19.3982 -69.374 -111.311 -70.1915 0 88.8779 87.1342 72.2441 6.41491 3.68432 22.9857 -2.9568 -138.235 10.7571 -167.143 -152.283 46.9737 -169.497 -0.488312 -16.624 -34.4942 -134.512 31.3362 -65.8521 27.6046 -2.75723 -94.5275 0.420957 0.000575982 0.35866 -1.67837 8.76308 33.1959 -47.5072 -26.934 147.573 22.183 2.36494 95.5213 0.58676 0.000331022 0.0646654 -34.19 12.6498 97.6457 -2.16847 34.1309 -6.97926 -3.91623 1.75322 0.611558 1.81356 0.0753433 -9.84263 -51.8896 -3.72714 86.7981 1.61696 38.6094 0.925096 -30.1507 -4.54674 3.24713 0.956906 -34.2724 -22.5082 
-23.6461 92.9383 51.2894 -17.1509 -69.9103 -108.43 -70.1915 0 88.8779 88.08 72.0444 5.79807 3.75214 22.721 -2.86478 -138.03 10.6401 -168.169 -151.39 46.983 -169.563 -0.557702 -16.8216 -34.8122 -134.074 32.0232 -64.0169 26.8666 -2.73846 -94.6591 0.420957 0.000575982 0.35866 -1.63283 8.46127 33.3879 -47.4397 -27.3335 146.724 21.5071 2.31446 95.5897 0.58676 0.000331022 0.0646654 -32.3633 12.7758 95.5405 -2.37948 36.6288 -7.37003 -4.36694 1.07513 0.599417 1.91925 -1.61832 -6.85822 -51.3442 -3.42049 85.4864 1.79337 40.0837 0.191892 -29.2668 -6.25824 2.85634 1.2364 -33.2894 -21.1179 
-24.062 92.5996 50.8718 -15.0846 -70.5315 -105.82 -70.1915 0 88.8779 89.4033 71.7743 4.74727 3.86565 22.4359 -3.01047 -138.016 9.99613 -169.106 -150.515 46.3884 -170.262 -0.574941 -16.9082 -34.7576 -132.835 32.4511 -63.2133 26.6809 -2.44151 -94.1187 0.420957 0.000575982 0.35866 -1.64565 8.37872 33.7598 -47.3915 -27.8053 145.48 21.3252 2.26838 95.5276 0.58676 0.000331022 0.0646654 -31.3802 12.2731 93.2092 -2.58894 38.4132 -8.19472 -3.80649 0.29122 0.433843 1.93827 -2.77374 -4.07715 -51.1514 -2.73635 85.2092 1.71958 41.2587 -1.28696 -28.2466 -8.37595 2.41732 1.49889 -31.5914 -20.0984 
-24.2767 92.3363 50.6273 -14.1017 -70.7973 -104.498 -70.1915 0 88.8779 89.6459 71.795 4.61068 3.97062 22.332 -2.60436 -138.539 9.43385 -169.063 -150.474 45.7672 -171.107 -0.599352 -16.9579 -34.9432 -131.636 32.6155 -62.7724 26.6736 -2.15069 -93.5575 0.420957 0.000575982 0.35866 -1.58902 8.37906 33.0533 -46.998 -28.7615 144.7 21.5401 2.33746 95.6318 0.58676 0.000331022 0.0646654 -31.643 11.5591 91.5357 -2.5079 37.8972 -7.61742 -2.69594 0.073802 0.266328 1.29989 -1.13437 -4.43685 -50.8883 -2.10324 85.5171 1.62098 42.1312 -2.56647 -26.9979 -10.2915 2.03504 1.68854 -30.2787 -19.061 
-24.3452 92.2573 50.4754 -14.6459 -70.6609 -105.019 -70.1915 0 88.8779 89.184 71.8637 5.49197 4.0789 22.4606 -2.80728 -138.733 8.89843 -168.606 -150.367 45.0792 -171.715 -0.593924 -16.9077 -35.0541 -130.938 32.1892 -63.023 26.1243 -1.79228 -92.9335 0.420957 0.000575982 0.35866 -1.59329 8.46731 32.889 -46.7677 -29.0872 143.887 21.3624 2.40701 95.8498 0.58676 0.000331022 0.0646654 -32.4625 11.2587 91.2863 -2.24021 36.0601 -6.44606 -1.36286 0.425823 0.122552 1.17541 0.621979 -7.48467 -50.5034 -1.70898 86.1285 1.63171 42.6331 -2.6734 -25.4303 -11.3097 1.8191 1.78623 -28.7623 -18.8476 
-24.5138 92.3221 50.3536 -14.6191 -70.5149 -104.973 -70.1915 0 88.8779 87.4154 71.9161 6.76076 4.35123 22.3432 -2.17036 -139.023 8.62458 -168.004 -150.48 44.7377 -171.747 -0.585911 -16.8433 -35.174 -130.41 31.798 -63.6252 25.18 -1.35554 -92.1723 0.420957 0.000575982 0.35866 -1.61092 8.24815 33.6569 -47.0037 -28.1559 142.679 20.9121 2.37287 95.8987 0.58676 0.000331022 0.0646654 -32.6614 11.4804 91.7254 -2.22329 34.9665 -6.89281 -0.622711 2.12034 0.167284 1.71741 -0.760165 -7.61946 -50.1959 -1.25878 86.6821 1.52472 42.8093 -3.37061 -23.3729 -12.387 1.62097 2.02752 -26.5044 -17.2347 
-24.7364 92.4261 50.2834 -13.7865 -70.7523 -104.111 -70.1915 0 88.8779 87.1665 71.9517 5.96119 4.24015 22.1264 -1.27746 -139.04 8.9233 -167.854 -150.779 45.1786 -170.715 -0.489121 -16.5893 -34.6299 -130.158 32.2934 -63.811 24.9099 -1.18962 -91.863 0.420957 0.000575982 0.35866 -1.70669 8.09615 35.2958 -47.5528 -27.193 141.026 20.7187 2.36749 95.9442 0.58676 0.000331022 0.0646654 -33.2088 11.7288 92.0939 -2.22129 33.9076 -7.43569 -2.01978 2.64891 0.417321 1.64217 -0.691468 -7.33668 -50.3682 -1.03962 86.7707 1.42067 42.8064 -4.06725 -22.0101 -13.2627 1.48239 2.15919 -24.859 -15.7306 
-24.9469 92.5869 50.3012 -13.0478 -71.0204 -103.18 -70.1915 0 88.8779 87.539 72.0189 5.19207 4.06199 22.1432 -1.05838 -138.597 9.64125 -168.461 -150.784 46.0364 -170.043 -0.454682 -16.5388 -34.2461 -130.054 32.564 -64.1856 25.5808 -1.28535 -91.9807 0.420957 0.000575982 0.35866 -1.79104 8.14123 36.2075 -47.6898 -27.5737 140.135 20.4565 2.3467 95.9727 0.58676 0.000331022 0.0646654 -33.9444 12.1585 92.6014 -2.18162 32.8485 -7.91957 -2.59131 2.79833 0.520531 1.71973 -0.0939067 -8.96366 -51.0273 -1.06462 86.0309 1.38431 42.0287 -3.90474 -22.1344 -12.8114 1.54061 2.19367 -25.0263 -15.1591 
